<svg width="532" height="471" viewBox="0 0 532 471" fill="none" xmlns="http://www.w3.org/2000/svg">
<g clip-path="url(#clip0_127_13)">
<path fill-rule="evenodd" clip-rule="evenodd" d="M205.199 255.034C185.649 259.895 201.475 289.719 182.722 298.14C165.498 305.873 154.484 323.982 137.152 333.67C114.172 346.515 92.4908 350.645 70.1009 367.484C59.1939 375.688 24.6996 370.769 23.6646 384.496C76.8065 376.23 105.201 399.596 137.915 403.969C166.785 407.828 188.612 406.239 213.038 396.865C297.835 364.322 262.337 291.076 262.007 268.793C245.282 265.679 221.379 251.012 205.199 255.034Z" fill="#525F98"/>
<path d="M447.973 313.422C447.018 315.815 446.771 317.788 447.084 319.446C447.397 321.105 448.261 322.461 449.41 323.747C450.56 325.034 451.98 326.271 453.501 327.547C455.022 328.824 456.655 330.115 458.349 331.353C460.043 332.59 461.741 333.599 463.391 334.348C465.041 335.097 466.637 335.6 468.092 335.787C469.547 335.974 470.859 335.838 471.946 335.247C473.033 334.655 473.893 333.606 474.464 331.992C475.036 330.377 475.044 328.984 474.581 327.817C474.118 326.651 473.183 325.717 471.955 324.913C470.727 324.108 469.212 323.43 467.633 322.621C466.054 321.812 464.421 320.848 462.872 319.489C461.323 318.13 460.015 316.279 458.748 314.522C457.482 312.766 456.231 311.14 454.951 310.137C453.671 309.135 452.379 308.749 451.191 309.227C450.002 309.704 447.016 315.814 447.973 313.422Z" fill="#E1D6B9"/>
<path d="M455.051 308.629C456.351 309.44 457.645 310.751 458.937 312.273C460.415 314.011 461.9 315.999 463.676 317.569C465.452 319.139 467.304 320.293 469.097 321.297C470.891 322.301 472.608 323.191 473.993 324.245C475.379 325.298 476.425 326.518 476.952 327.959C477.479 329.399 477.492 331.049 476.904 332.856C476.316 334.663 475.321 335.908 474.03 336.657C472.738 337.407 471.151 337.666 469.394 337.553C467.637 337.439 465.711 336.963 463.739 336.183C461.766 335.403 459.754 334.306 457.778 332.904C455.802 331.502 453.984 330.062 452.331 328.666C450.679 327.271 449.184 325.935 448.016 324.524C447.571 323.988 447.178 323.435 446.844 322.859C446.169 321.696 447.425 319.092 447.851 320.419C448.245 321.649 448.95 322.719 449.85 323.739C450.947 324.981 452.306 326.176 453.764 327.407C455.222 328.638 456.79 329.882 458.415 331.074C460.04 332.267 461.669 333.241 463.251 333.964C464.833 334.687 466.363 335.174 467.757 335.356C469.151 335.538 470.409 335.409 471.45 334.843C472.491 334.277 473.313 333.273 473.859 331.723C474.406 330.174 474.413 328.834 473.971 327.711C473.528 326.589 472.636 325.688 471.464 324.909C470.291 324.13 468.844 323.471 467.333 322.688C465.821 321.904 464.254 320.974 462.764 319.667C461.273 318.36 460.01 316.583 458.793 314.894C457.577 313.204 456.384 311.636 455.165 310.664C455.013 310.543 454.86 310.43 454.708 310.327C454.316 310.064 453.929 309.852 453.538 309.739C453.087 309.609 453.378 307.663 454.495 308.312C454.676 308.418 454.943 308.823 455.051 308.629Z" fill="#394655"/>
<path d="M376.713 402.406C380.639 409.873 379.198 418.465 379.936 424.844C380.673 431.224 383.569 435.353 385.86 438.56C388.15 441.767 390.158 443.879 392.21 444.557C394.261 445.234 396.322 444.501 398.575 441.987C400.828 439.474 401.734 436.607 401.698 433.326C401.662 430.046 400.651 426.369 399.327 421.951C398.002 417.532 396.532 412.325 393.494 406.604C390.456 400.882 386.3 394.185 379.566 387.59C372.832 380.994 364.417 375.791 357.07 371.541C349.722 367.292 343.403 363.979 338.45 361.539C333.497 359.1 329.793 357.555 327.114 356.879C324.436 356.203 322.768 356.385 322.177 357.433C321.586 358.481 322.473 360.224 324.897 362.569C327.322 364.914 331.354 367.865 337.035 371.405C342.715 374.946 350.179 379.037 357.693 384.039C365.208 389.041 372.788 394.94 376.713 402.406Z" fill="#394655"/>
<path d="M378.182 400.323C382.08 406.504 382.315 413.541 382.382 419.777C382.45 426.013 383.91 430.669 385.897 434C387.885 437.331 389.844 439.611 391.64 440.627C393.436 441.642 395.167 441.35 397.024 439.3C398.88 437.25 399.417 434.733 399.078 431.75C398.739 428.768 397.533 425.314 396.271 421.066C395.009 416.817 393.733 411.77 391.018 406.445C388.304 401.12 384.426 395.215 378.859 389.526C373.291 383.836 366.454 379.279 360.264 375.55C354.075 371.821 348.541 368.898 344.155 366.675C339.768 364.453 336.453 362.948 334.127 362.168C331.801 361.389 330.441 361.332 330.101 362.036C329.76 362.74 330.819 364.108 333.231 366.04C335.643 367.972 339.462 370.467 344.493 373.517C349.523 376.568 355.824 380.161 362.052 384.541C368.279 388.92 374.284 394.142 378.182 400.323Z" fill="#E1D6B9"/>
<path d="M225.129 316.112C217.058 313.72 211.616 308.228 206.408 304.981C201.2 301.734 196.269 300.745 192.412 299.995C188.555 299.245 185.692 298.981 183.866 299.543C182.039 300.106 181.253 301.465 181.663 303.914C182.073 306.362 183.615 308.39 186.07 310.217C188.526 312.045 191.906 313.647 196.038 315.521C200.17 317.396 204.981 319.647 211.185 321.467C217.39 323.286 225.039 325.14 234.277 325.752C243.515 326.363 252.806 325.42 260.7 324.431C268.594 323.442 275.13 322.399 280.137 321.494C285.143 320.588 288.68 319.754 290.91 318.903C293.14 318.052 294.082 317.183 293.686 316.322C293.29 315.461 291.425 314.889 288.121 314.685C284.816 314.482 280.025 314.677 273.733 315.298C267.44 315.919 259.589 317.051 251.029 317.693C242.469 318.336 233.201 318.504 225.129 316.112Z" fill="#394655"/>
<path d="M225.727 317.957C218.626 316.275 213.256 312.428 208.587 308.953C203.918 305.479 199.523 303.533 195.769 302.575C192.016 301.616 189.061 301.235 187.148 301.49C185.235 301.744 184.335 302.705 184.657 304.71C184.979 306.716 186.5 308.378 188.931 309.898C191.361 311.419 194.701 312.806 198.667 314.614C202.633 316.422 207.199 318.672 212.901 320.417C218.602 322.162 225.484 323.699 233.298 324.338C241.112 324.976 248.905 324.395 255.665 323.646C262.426 322.896 268.166 321.996 272.645 321.229C277.125 320.462 280.381 319.784 282.461 319.153C284.54 318.522 285.46 317.928 285.157 317.376C284.855 316.824 283.157 316.542 280.167 316.564C277.177 316.587 272.862 316.941 267.352 317.538C261.843 318.136 255.111 319.013 247.843 319.414C240.575 319.815 232.827 319.64 225.727 317.957Z" fill="#E1D6B9"/>
<path d="M365.809 55.2529C367.184 58.5326 369.856 61.1634 372.992 63.0451C376.127 64.9269 379.67 66.1004 383.124 66.6484C386.577 67.1965 389.979 67.1187 393.352 66.2592C396.725 65.3998 400.714 64.0132 403.564 61.5889C406.413 59.1647 407.424 56.1429 408.029 53.3648C408.633 50.5867 409.116 47.4503 410.968 43.67C412.82 39.8898 414.485 36.0558 414.34 33.263C414.195 30.4701 413.537 27.9082 412.318 25.7045C411.1 23.5009 409.436 21.8588 407.438 20.708C405.44 19.5572 403.107 18.8971 400.532 18.6777C397.957 18.4583 395.138 18.6776 392.167 19.3248C389.195 19.972 386.072 21.0455 382.891 22.6032C379.709 24.1608 376.767 26.0619 374.187 28.268C371.607 30.474 369.391 32.989 367.744 35.7424C366.097 38.4958 365.029 41.4915 364.763 44.5592C364.498 47.627 364.435 51.9732 365.809 55.2529Z" fill="#96D6FF"/>
<path d="M384.469 19.8149C387.058 18.7801 389.601 18.024 392.054 17.5197C395.324 16.8472 398.43 16.6255 401.272 16.8678C404.114 17.1101 406.692 17.815 408.909 19.055C411.127 20.2951 412.981 22.0673 414.362 24.4491C415.743 26.8309 416.525 29.6079 416.741 32.6394C416.956 35.671 415.781 39.5448 413.693 43.6604C411.605 47.776 411.029 51.2277 410.39 54.2391C409.753 57.2401 407.756 59.9944 404.118 62.292C403.697 62.5553 402.784 61.4409 403.103 61.1491C405.931 58.6181 406.622 55.608 407.575 53.1084C408.177 50.4068 408.658 47.3547 410.479 43.6732C412.301 39.9919 413.94 36.2582 413.81 33.5382C413.68 30.8182 413.049 28.32 411.869 26.1737C410.689 24.0273 409.069 22.4323 407.122 21.3117C405.174 20.1911 402.895 19.5436 400.377 19.3301C397.858 19.1167 395.103 19.3307 392.193 19.9617C390.738 20.2772 389.24 20.7002 387.722 21.2305C386.203 21.7606 384.657 22.3994 383.098 23.1573C379.981 24.6759 377.103 26.5285 374.578 28.6791C372.053 30.8296 369.882 33.2849 368.271 35.9665C366.66 38.6481 365.615 41.5603 365.351 44.5443C365.086 47.5283 365.009 51.7511 366.336 54.9401C367.425 57.5589 369.337 59.7822 371.741 61.4497C372.189 61.7599 370.374 63.6759 369.009 62.8384C366.462 61.2743 364.73 58.7638 363.627 56.1101C362.137 52.5216 361.936 47.9651 362.195 44.605C362.454 41.245 363.596 37.9734 365.374 34.9901C367.152 32.0068 369.552 29.3056 372.358 26.9517C375.165 24.5978 378.38 22.5829 381.864 20.9454C382.735 20.5361 383.606 20.1608 384.469 19.8149Z" fill="#394655"/>
<path d="M407.383 37.1981C406.928 36.4735 405.764 36.2297 403.96 36.7223C401.219 37.4705 398.083 40.5116 396.356 42.8363C395.408 44.1115 394.333 45.3411 393.788 46.8478C393.603 47.3592 393.44 47.8741 393.58 48.5838C394.205 48.4659 394.68 47.6619 395 47.047C396.259 44.6236 398.028 42.4618 400.311 40.8715C402.233 39.5336 402.476 38.5794 404.41 37.7587C405.634 37.2393 406.341 37.5257 407.383 37.1981Z" fill="#394655"/>
<path d="M396.685 42.364C396.154 41.7873 397.158 43.5541 397.823 43.776C400.321 44.609 402.718 45.7318 405.18 46.6595C405.981 46.9614 406.212 46.1288 405.535 45.6974C404.847 45.2592 404.133 44.9636 403.387 44.6883C402.688 44.4306 401.931 44.3309 401.254 44.0243C399.952 43.4353 399.247 42.6403 397.982 41.9775C397.549 41.7501 396.968 42.6709 396.686 42.3646L396.685 42.364Z" fill="#394655"/>
<path d="M474.384 272.121C468.307 322.223 457.577 370.875 419.662 404.099C371.83 446.013 283.903 451.552 221.706 411.783C203.719 400.282 189.396 368.334 187.101 347.675C182.305 304.49 200.036 275.245 195.895 235.393C192.599 203.673 176.559 177.424 178.079 139.657C179.099 114.314 185.298 84.8262 204.506 69.1597C229.67 48.6355 259.05 36.883 292.372 37.692C339.826 38.8443 391.001 42.113 430.803 72.5896C459.211 94.3417 475.495 130.266 478.366 167.137C481.315 205.01 478.261 240.151 474.384 272.121Z" fill="#394655"/>
<path d="M462.497 318.428C452.345 364.504 424.382 407.449 374.8 424.45C328.731 440.246 268.137 436.539 223.322 406.597C206.264 395.201 193.252 363.647 191.381 344.072C187.444 302.867 203.808 272.673 200.06 234.643C196.932 202.899 181.779 179.896 182.252 142.246C182.561 117.641 188.118 88.4684 206.927 73.2052C230.756 53.8686 258.044 41.5926 289.427 41.7505C339.154 42.0008 395.222 45.6171 434.811 81.3437C471.005 114.007 476.162 171.522 474.483 216.425C473.099 253.46 469.478 286.745 462.497 318.428Z" fill="#96D6FF"/>
<path d="M218.581 59.9965C220.903 64.0163 221.619 68.4537 221.27 72.6659C220.922 76.8782 219.585 80.8381 217.698 84.2153C215.81 87.5926 213.347 90.4176 210.135 92.5778C206.923 94.738 202.764 96.9982 198.362 97.3835C193.961 97.7688 190.227 96.0068 186.965 93.968C183.704 91.9293 180.099 89.2915 174.918 87.3357C169.736 85.3799 164.664 83.3008 161.837 80.4147C159.011 77.5285 156.76 74.3646 155.246 70.9971C153.732 67.6297 153.092 64.3691 153.188 61.2739C153.283 58.1786 154.114 55.2493 155.592 52.5876C157.07 49.926 159.195 47.5322 161.919 45.5479C164.644 43.5637 167.968 41.9902 171.9 40.9998C175.831 40.0095 180.008 39.6969 184.257 40.0155C188.506 40.3341 192.831 41.283 196.961 42.8338C201.09 44.3846 205.019 46.5397 208.393 49.2766C211.767 52.0136 216.259 55.9769 218.581 59.9965Z" fill="#96D6FF"/>
<path d="M167.945 39.7778C165.01 40.869 162.436 42.2905 160.22 43.9614C157.264 46.1894 154.95 48.8601 153.325 51.8142C151.701 54.7684 150.764 58.0002 150.622 61.407C150.48 64.8139 151.132 68.388 152.719 72.0704C154.306 75.7529 156.687 79.2141 159.698 82.3542C162.709 85.4943 167.478 88.0252 173.13 89.9928C178.783 91.9604 182.751 94.7443 186.246 96.8949C189.729 99.0381 193.854 99.6397 198.674 98.4545C199.229 98.3173 198.759 96.5854 198.245 96.6098C193.748 96.8718 190.228 94.796 187.01 93.3181C183.823 91.3329 180.302 88.7625 175.239 86.8603C170.176 84.9582 165.218 82.9344 162.454 80.1235C159.69 77.3125 157.484 74.2291 156.002 70.9473C154.519 67.6656 153.897 64.4887 153.991 61.4691C154.084 58.4495 154.893 55.5853 156.34 52.9853C157.787 50.3852 159.864 48.0489 162.532 46.107C163.866 45.1363 165.353 44.2633 166.98 43.5134C168.608 42.7634 170.382 42.1321 172.304 41.6438C176.15 40.6708 180.229 40.3635 184.38 40.6702C188.532 40.9769 192.761 41.9023 196.791 43.4145C200.82 44.9266 204.648 47.027 207.94 49.6968C211.232 52.3666 215.616 56.2279 217.887 60.1449C219.752 63.3616 220.611 66.8459 220.57 70.2735C220.562 70.9117 223.732 70.9748 223.868 69.1326C224.121 65.6942 222.868 62.1629 221 58.9661C218.474 54.6434 213.996 50.3715 210.348 47.4132C206.699 44.4549 202.449 42.1375 197.993 40.4882C193.537 38.8389 188.884 37.8507 184.312 37.5547C179.74 37.2589 175.239 37.6543 171.002 38.7995C169.943 39.0857 168.923 39.4151 167.945 39.7778Z" fill="#394655"/>
<path d="M176.798 66.3355C177.125 65.0508 178.723 64.1364 181.615 64.0004C186.007 63.7937 192.067 66.7751 195.713 69.3738C197.713 70.7995 199.88 72.0969 201.397 74.0554C201.912 74.7202 202.396 75.4006 202.526 76.5126C201.549 76.6374 200.468 75.6803 199.706 74.9273C196.704 71.9596 193.073 69.6205 188.956 68.3688C185.491 67.3159 184.681 66.0268 181.443 65.7415C179.394 65.5609 178.487 66.3205 176.798 66.3355Z" fill="#394655"/>
<path d="M195.004 68.8361C195.513 67.7337 194.872 70.8134 193.997 71.4578C190.714 73.876 187.717 76.6725 184.532 79.2127C183.494 80.0396 182.761 78.9241 183.553 77.966C184.358 76.9928 185.269 76.217 186.237 75.4557C187.145 74.7426 188.213 74.2345 189.064 73.4601C190.701 71.9721 191.363 70.4654 192.911 68.8861C193.442 68.3445 194.733 69.4229 195.003 68.8375L195.004 68.8361Z" fill="#394655"/>
<path d="M274.241 420.292C271.707 419.831 269.725 419.979 268.167 420.625C266.609 421.272 265.465 422.412 264.482 423.863C263.499 425.315 262.658 427.072 261.814 428.959C260.97 430.846 260.144 432.867 259.338 434.899C258.531 436.932 257.911 438.892 257.512 440.724C257.113 442.557 256.921 444.261 257.019 445.762C257.116 447.264 257.511 448.562 258.344 449.578C259.177 450.593 260.452 451.326 262.266 451.686C264.08 452.046 265.547 451.858 266.704 451.246C267.862 450.633 268.704 449.596 269.342 448.264C269.98 446.932 270.414 445.307 270.886 443.513C271.357 441.719 271.886 439.757 272.723 437.72C273.56 435.683 274.838 433.714 276.055 431.846C277.272 429.978 278.408 428.212 279.019 426.642C279.631 425.071 279.718 423.7 279.001 422.619C278.283 421.539 276.774 420.753 274.241 420.292Z" fill="#E1D6B9"/>
<path d="M280.458 426.384C280.012 427.906 279.151 429.603 278.144 431.418C276.994 433.492 275.669 435.715 274.708 438.064C273.746 440.412 273.08 442.646 272.441 444.682C271.803 446.719 271.165 448.556 270.281 450.064C269.398 451.571 268.269 452.747 266.837 453.457C265.405 454.168 263.68 454.414 261.681 454.077C259.681 453.741 258.2 452.92 257.179 451.74C256.157 450.559 255.59 449.017 255.361 447.234C255.132 445.45 255.233 443.425 255.599 441.266C255.965 439.108 256.612 436.819 257.53 434.477C258.449 432.135 259.397 429.913 260.355 427.892C261.312 425.872 262.266 424.054 263.394 422.586C263.823 422.028 264.282 421.523 264.777 421.074C265.778 420.169 268.583 420.893 267.379 421.592C266.263 422.24 265.9 423.094 265.143 424.244C264.221 425.646 263.564 427.454 262.823 429.187C262.082 430.92 260.713 432.555 259.986 434.361C259.258 436.167 258.703 437.919 258.351 439.592C257.998 441.266 257.831 442.857 257.924 444.272C258.018 445.686 258.382 446.92 259.148 447.866C259.913 448.813 261.082 449.471 262.695 449.788C264.308 450.106 265.58 449.93 266.538 449.349C267.496 448.769 267.567 447.135 268.021 445.903C268.474 444.671 269.186 443.163 269.591 441.577C269.996 439.992 270.675 438.976 271.652 437.229C272.629 435.483 274.129 433.769 275.506 431.995C276.883 430.222 277.992 428.505 278.58 426.994C278.654 426.806 278.72 426.619 278.777 426.437C278.924 425.967 279.029 425.52 279.042 425.095C279.057 424.605 280.975 424.458 280.624 425.743C280.567 425.951 280.522 426.166 280.458 426.384Z" fill="#394655"/>
<g opacity="0.06">
<path d="M401.107 224.239C389.388 224.239 379.888 215.473 379.888 204.659C379.888 193.845 389.388 185.079 401.107 185.079C412.826 185.079 422.326 193.845 422.326 204.659C422.326 215.473 412.826 224.239 401.107 224.239Z" fill="black"/>
<path d="M180.967 41.1818C174.709 41.1152 170.814 41.9719 166.212 44.2752C161.451 46.6584 156.719 51.7697 155.293 56.0699C153.148 62.539 154.895 70.2 160.036 76.8747C163.056 80.7966 166.509 83.0856 173.844 86.0291C176.876 87.2461 181.111 89.3435 183.256 90.6904C188.569 94.0269 192.552 95.7255 196.054 96.1486C198.343 96.4251 198.998 96.7518 198.998 97.6204C198.998 98.4647 198.331 98.8375 196.266 99.1477C194.764 99.3736 192.702 99.3756 191.683 99.1515C189.84 98.746 189.821 98.7682 188.227 103.587C184.563 114.668 182.721 128.065 182.737 143.496C182.756 160.838 184.463 170.847 191.792 196.554C197.048 214.993 198.556 221.549 199.901 231.83C201.842 246.658 201.144 257.016 196.209 286.539C191.612 314.045 191.334 316.546 191.31 330.601C191.287 344.12 191.91 349.392 194.642 358.824C199.789 376.593 207.617 391.123 217.238 400.763C224.803 408.341 238.625 416.158 256.21 422.805C261.385 424.76 261.726 424.812 262.322 423.746C263.951 420.831 265.355 420.17 271.142 420.149C234.584 388.19 238.552 342.243 247.02 317.023C253.952 296.379 277.047 266.628 277.047 266.628L255.866 264.751C255.866 264.751 249.005 224.387 243.431 208.038C222.084 145.424 215.244 94.0962 247.562 58.274C253.085 52.1527 259.47 47.6585 266.096 44.3603C257.564 46.1578 248.798 48.9097 241.129 52.2444C234.841 54.9783 223.158 61.626 223.177 62.4582C223.185 62.8281 223.467 64.3278 223.805 65.792C224.559 69.0688 223.728 71.0552 221.724 70.7694C220.602 70.6094 220.309 70.0489 219.994 67.469C219.398 62.5736 216.969 58.5719 211.424 53.3464C202.677 45.105 195.076 41.7795 183.803 41.2651C182.803 41.2195 181.861 41.1914 180.967 41.1818ZM182.272 63.9984C184.053 64.0591 186.047 64.3931 187.834 64.9876C191.607 66.2428 199.513 71.3213 201.363 73.6778C204.203 77.2946 202.355 77.4741 198.146 73.9903C196.496 72.625 194.961 71.509 194.734 71.509C194.508 71.509 192.099 73.3228 189.381 75.5398C186.663 77.7568 184.09 79.5705 183.664 79.5724C181.879 79.579 183.13 77.6008 186.603 74.924C190.991 71.5419 192.169 69.8236 190.505 69.2347C189.894 69.0184 187.742 68.1607 185.722 67.3284C182.875 66.155 181.449 65.9052 179.372 66.2171C176.474 66.6525 175.76 65.847 177.988 64.6529C178.923 64.1514 180.492 63.9376 182.272 63.9984ZM280.363 427.275C280.358 427.29 280.356 427.3 280.352 427.314L279.689 429.481L285.035 430.443C285.12 430.458 285.229 430.473 285.316 430.489C283.598 429.436 281.949 428.364 280.363 427.275Z" fill="black"/>
<path fill-rule="evenodd" clip-rule="evenodd" d="M269.635 266.757L265.404 280.844C267.87 280.868 274.706 274.766 281.241 274.389C353.966 270.195 399.428 274.005 458.23 269.272C459.604 269.162 461.788 269.169 463.151 269.469C468.079 270.556 470.797 283.076 472 282.349C472.572 268.973 469.803 264.228 466.501 260.861L269.635 266.757Z" fill="black"/>
</g>
<path d="M239.497 144.549C239.77 153.725 242.057 162.578 245.939 170.793C249.822 179.008 255.298 186.587 261.941 193.152C268.584 199.717 276.392 205.269 284.958 209.357C293.524 213.445 302.849 216.066 312.554 216.724C322.259 217.382 331.43 216.005 339.726 212.893C348.021 209.782 355.439 204.938 361.616 198.729C367.792 192.52 372.725 184.946 376.043 176.426C379.36 167.906 381.06 158.439 380.782 148.488C380.503 138.536 378.274 129.05 374.492 120.488C370.711 111.926 365.38 104.288 358.885 97.9678C352.39 91.6475 344.733 86.6445 336.275 83.2713C327.817 79.8981 318.557 78.1515 308.848 78.2866C299.139 78.4216 289.897 80.4152 281.495 83.8404C273.093 87.2655 265.534 92.1244 259.218 98.0733C252.902 104.022 247.831 111.063 244.411 118.901C240.991 126.739 239.224 135.374 239.497 144.549Z" fill="#394655"/>
<path d="M244.275 142.454C244.274 151.087 246.145 159.558 249.554 167.517C252.963 175.477 257.913 182.924 264.05 189.413C270.186 195.903 277.509 201.427 285.62 205.487C293.731 209.548 302.627 212.141 311.899 212.796C321.17 213.451 329.938 212.105 337.856 209.112C345.773 206.119 352.843 201.48 358.732 195.577C364.621 189.674 369.329 182.507 372.518 174.487C375.707 166.468 377.376 157.595 377.183 148.316C376.991 139.036 374.957 130.236 371.46 122.317C367.963 114.397 363.003 107.359 356.952 101.527C350.9 95.6951 343.757 91.0683 335.866 87.8985C327.975 84.7287 319.334 83.0115 310.265 82.9648C301.196 82.9182 292.555 84.5377 284.679 87.4644C276.803 90.3912 269.693 94.6284 263.71 99.9095C257.727 105.191 252.871 111.518 249.509 118.675C246.146 125.832 244.276 133.82 244.275 142.454Z" fill="white"/>
<path d="M294.905 162.425C284.353 162.425 275.8 153.857 275.8 143.288C275.8 132.72 284.353 124.152 294.905 124.152C305.456 124.152 314.01 132.72 314.01 143.288C314.01 153.857 305.456 162.425 294.905 162.425Z" fill="#394455"/>
<path d="M303.361 143.916C298.172 143.916 293.965 139.702 293.965 134.504C293.965 129.306 298.172 125.093 303.361 125.093C308.551 125.093 312.757 129.306 312.757 134.504C312.757 139.702 308.551 143.916 303.361 143.916Z" fill="white"/>
<path d="M419.462 109.033C419.283 116.294 420.765 124.14 422.976 132.25C425.187 140.359 428.059 148.742 430.964 156.756C433.869 164.77 436.813 172.375 440.006 178.875C443.199 185.374 446.691 190.768 451 194.638C455.309 198.508 460.071 200.515 465.209 200.953C470.347 201.392 476.781 202.283 482.282 199.78C487.784 197.277 493.211 193.378 498.044 188.207C502.877 183.035 507.115 176.589 510.224 169.012C513.333 161.434 515.01 153.447 515.237 145.515C515.464 137.583 514.239 129.709 511.639 122.337C509.038 114.964 503.148 105.871 497.993 99.8949C492.837 93.9187 486.497 88.8348 479.297 85.023C472.097 81.2112 464.731 79.0293 457.757 78.3289C450.783 77.6284 444.2 78.4123 438.537 80.5604C432.873 82.7084 428.132 86.2191 424.815 90.9876C421.498 95.7561 419.641 101.772 419.462 109.033Z" fill="#394655"/>
<path d="M422.643 109.891C422.269 116.631 423.311 124.003 425.143 131.683C426.975 139.363 429.574 147.353 432.453 154.98C435.332 162.607 438.475 169.833 441.841 175.984C445.206 182.136 448.819 187.218 453.027 190.854C457.235 194.491 461.692 196.366 466.407 196.771C471.121 197.176 477.1 198.134 482.033 195.78C486.966 193.426 491.811 189.767 496.115 184.927C500.42 180.086 504.183 174.06 506.914 166.989C509.645 159.918 511.077 152.475 511.19 145.09C511.304 137.704 510.097 130.378 507.64 123.512C505.184 116.646 499.536 107.979 494.751 102.398C489.965 96.8162 484.107 92.0559 477.483 88.4666C470.859 84.8774 464.111 82.7966 457.75 82.0808C451.389 81.365 445.417 82.0158 440.29 83.9202C435.163 85.8246 430.885 88.9794 427.844 93.3132C424.802 97.647 423.017 103.152 422.643 109.891Z" fill="white"/>
<path d="M493.099 142.042C485.377 139.566 481.116 131.293 483.583 123.563C486.05 115.832 494.309 111.573 502.032 114.049C509.754 116.524 514.015 124.798 511.549 132.528C509.082 140.258 500.822 144.518 493.099 142.042Z" fill="#394455"/>
<path d="M501.284 129.39C497.486 128.172 495.39 124.103 496.604 120.302C497.817 116.5 501.879 114.405 505.677 115.623C509.475 116.84 511.57 120.909 510.357 124.711C509.144 128.512 505.082 130.607 501.284 129.39Z" fill="white"/>
<path d="M410.623 199.981L404.605 200.06L401.097 199.982C399.978 199.957 398.982 200.489 398.255 201.273C397.529 202.057 397.172 203.143 397.003 204.328L396.045 211.036L394.715 217.767C394.476 218.98 394.795 220.049 395.382 220.826C395.969 221.604 396.869 222.047 397.931 222.073L401.47 222.157L408.47 221.994C409.813 221.962 411.06 221.44 411.974 220.637C412.889 219.834 413.43 218.743 413.539 217.552L414.151 210.872L414.648 204.202C414.736 203.015 414.206 201.952 413.463 201.19C412.719 200.429 411.707 199.974 410.623 199.981Z" fill="#2E3436"/>
<path d="M409.524 202.012L404.612 202.078L402.273 201.982C401.385 201.946 400.564 202.395 399.947 203.037C399.33 203.678 398.97 204.568 398.802 205.539L397.854 211.023L396.668 216.522C396.456 217.504 396.67 218.387 397.131 219.023C397.592 219.658 398.328 220.002 399.209 220.037L401.611 220.132L407.174 220.012C408.227 219.989 409.23 219.565 409.984 218.909C410.738 218.254 411.221 217.362 411.344 216.386L412.034 210.924L412.63 205.468C412.737 204.497 412.36 203.625 411.787 203.001C411.214 202.377 410.411 202 409.524 202.012Z" fill="white"/>
<path d="M382.135 194.293C382.303 196.444 383.625 198.389 385.505 200.141C387.385 201.893 389.981 203.445 392.988 204.717C395.994 205.989 399.386 206.967 402.822 207.49C406.257 208.012 409.738 208.07 413.159 207.657C416.58 207.244 419.644 206.422 422.303 205.406C424.963 204.39 427.198 203.184 428.958 201.847C430.718 200.51 432.019 199.028 432.841 197.375C433.663 195.722 434.003 193.892 433.705 191.919C433.407 189.947 432.484 188.024 431.06 186.257C429.635 184.49 427.719 182.881 425.468 181.543C423.217 180.204 420.635 179.136 417.785 178.436C414.935 177.736 411.814 177.403 408.399 177.516C404.984 177.629 401.577 178.174 398.341 179.074C395.106 179.974 392.057 181.235 389.515 182.776C386.973 184.317 384.885 186.092 383.666 188.095C382.417 190.148 381.992 192.461 382.135 194.293Z" fill="#394655"/>
<path d="M389.365 193.811C389.658 195.519 390.656 197.114 392.188 198.543C393.72 199.973 395.784 201.239 398.13 202.249C400.475 203.259 403.091 204.006 405.758 204.399C408.425 204.791 411.146 204.827 413.822 204.5C416.497 204.173 418.887 203.525 420.96 202.697C423.034 201.869 424.783 200.862 426.156 199.738C427.528 198.615 428.527 197.37 429.116 196.014C429.705 194.658 429.886 193.188 429.579 191.631C429.272 190.073 428.502 188.577 427.366 187.212C426.23 185.847 424.73 184.615 422.963 183.595C421.196 182.575 419.164 181.768 416.923 181.246C414.683 180.724 412.234 180.487 409.582 180.597C406.931 180.707 404.315 181.152 401.844 181.867C399.373 182.582 397.051 183.569 395.09 184.766C393.129 185.962 391.537 187.37 390.523 188.905C389.508 190.441 389.072 192.103 389.365 193.811Z" fill="#E1D0CB"/>
<path d="M398.852 183.386C399.28 184.61 400.209 185.697 401.496 186.615C402.782 187.532 404.419 188.282 406.196 188.856C407.973 189.431 409.881 189.833 411.749 190.047C413.617 190.261 415.443 190.286 417.155 190.096C418.867 189.906 420.311 189.521 421.534 188.984C422.757 188.448 423.757 187.76 424.546 186.95C425.334 186.141 425.911 185.208 426.246 184.175C426.581 183.141 426.673 182.006 426.446 180.807C426.219 179.607 425.689 178.458 424.888 177.419C424.086 176.38 423.013 175.452 421.717 174.699C420.42 173.947 418.9 173.37 417.211 173.027C415.522 172.685 413.665 172.576 411.707 172.752C409.749 172.927 407.876 173.368 406.182 174.011C404.489 174.653 402.974 175.496 401.748 176.474C400.522 177.452 399.585 178.565 399.06 179.743C398.535 180.92 398.425 182.162 398.852 183.386Z" fill="#394655"/>
<path d="M286.374 304.516C284.594 306.377 283.624 308.115 283.304 309.773C282.983 311.431 283.301 313.016 283.968 314.638C284.634 316.261 285.633 317.933 286.739 319.68C287.845 321.426 289.071 323.231 290.319 325.027C291.567 326.823 292.856 328.422 294.162 329.767C295.468 331.112 296.781 332.213 298.084 332.96C299.388 333.707 300.687 334.094 301.991 333.959C303.296 333.824 304.608 333.164 305.908 331.847C307.208 330.531 307.861 329.202 307.989 327.897C308.117 326.592 307.717 325.317 306.96 324.048C306.203 322.78 305.09 321.521 303.856 320.136C302.622 318.752 301.281 317.227 300.047 315.404C298.812 313.581 297.877 311.427 296.993 309.379C296.109 307.331 295.265 305.408 294.295 304.03C293.324 302.652 292.231 301.822 290.936 301.825C289.64 301.828 288.154 302.654 286.374 304.516Z" fill="#E1D6B9"/>
<path d="M294.874 302.685C295.894 303.898 296.832 305.554 297.789 307.397C298.881 309.502 300.002 311.836 301.427 313.935C302.852 316.035 304.344 317.824 305.688 319.482C307.031 321.14 308.209 322.687 308.977 324.257C309.745 325.827 310.101 327.419 309.903 329.007C309.705 330.596 308.959 332.172 307.576 333.656C306.194 335.14 304.695 335.925 303.149 336.126C301.603 336.328 300.006 335.951 298.395 335.157C296.784 334.364 295.154 333.162 293.559 331.664C291.964 330.167 290.414 328.363 288.971 326.303C287.528 324.243 286.201 322.224 285.046 320.31C283.892 318.395 282.905 316.594 282.305 314.842C282.076 314.176 281.909 313.513 281.809 312.852C281.606 311.516 283.756 309.573 283.674 310.965C283.598 312.254 283.888 313.512 284.414 314.793C285.055 316.354 286.016 317.962 287.08 319.642C288.144 321.322 289.323 323.058 290.523 324.785C291.724 326.511 292.963 328.05 294.219 329.344C295.475 330.638 296.738 331.697 297.991 332.415C299.245 333.134 300.495 333.506 301.75 333.376C303.004 333.246 304.266 332.611 305.517 331.345C306.767 330.079 307.395 328.8 307.518 327.545C307.641 326.29 307.257 325.063 306.529 323.844C305.801 322.624 304.73 321.412 303.543 320.081C302.356 318.749 301.067 317.283 299.879 315.53C298.692 313.776 297.793 311.704 296.942 309.734C296.092 307.765 295.28 305.916 294.347 304.59C294.23 304.425 294.111 304.266 293.991 304.118C293.681 303.736 293.367 303.402 293.02 303.156C292.62 302.873 293.555 301.191 294.431 302.192C294.573 302.355 294.728 302.511 294.874 302.685Z" fill="#394655"/>
<path fill-rule="evenodd" clip-rule="evenodd" d="M196.11 251.284C187.513 271.503 181.653 278.806 167.499 293.731C156.628 305.194 140.231 316.892 126.092 331.235C113.283 344.229 101.402 351.12 65.3929 361.54C54.0755 364.815 23.7777 367.741 16.7445 396.853C60.5687 367.608 132.36 374.738 175.106 349.912C210.963 329.087 259.62 270.896 295.649 266.252C228.121 265.621 208.128 261.303 196.11 251.284Z" fill="#5869B6"/>
<path fill-rule="evenodd" clip-rule="evenodd" d="M406.558 262.723L476.286 257.894C476.286 257.894 478.452 258.884 478.825 259.896C485.785 278.812 466.801 317.496 466.801 317.496C466.801 314.683 479.59 275.894 461.211 266.881C445.667 259.258 425.143 264.923 406.558 262.723Z" fill="#5869B6"/>
<path fill-rule="evenodd" clip-rule="evenodd" d="M195.428 252.853C187.198 271.866 181.272 279.207 167.499 293.73C156.628 305.194 140.232 316.892 126.092 331.235C113.283 344.228 101.402 351.12 65.3932 361.54C55.3452 364.448 30.3496 367.097 19.9437 388.025C22.5254 384.723 26.755 383.409 29.2829 379.788C33.5426 373.688 86.7705 368.792 100.804 359.844C110.04 353.956 131.627 343.088 142.47 335.796C153.312 328.505 189.886 298.098 199.159 296.389C228.45 290.99 252.133 266.136 252.133 266.136C252.133 266.136 246.681 264.866 245.229 264.529C220.216 262.66 207.827 259.244 199.58 253.849C197.898 253.448 196.001 252.999 195.428 252.853Z" fill="#525F98"/>
<path fill-rule="evenodd" clip-rule="evenodd" d="M196.354 246.914C201.012 248.082 203.515 251.874 208.073 253.386C222.091 258.037 234.745 261.092 249.473 262.162C267.607 263.48 287.371 263.584 305.55 263.259C340.171 262.641 375.012 261.438 409.598 259.749C428.454 258.828 447.955 257.582 466.769 256.019C470.426 255.715 474.307 250.286 477.722 251.631C479.985 252.522 479.622 254.755 480.218 257.116C482.525 261.785 480.355 263.406 474.874 264.357C456.501 267.246 437.817 267.725 419.236 268.525C373.859 270.479 328.404 270.529 282.988 270.061C266.917 269.896 250.74 270.556 234.797 268.525C222.25 266.927 209.369 265.258 197.778 260.188C193.88 258.483 190.222 257.605 189.297 253.446C189.007 252.139 190.426 251.385 191.076 250.323C191.619 249.435 191.277 248.183 192.247 247.627C193.514 246.9 194.937 246.558 196.354 246.914Z" fill="#5869B6"/>
<path fill-rule="evenodd" clip-rule="evenodd" d="M191.646 248.361C191.412 248.966 191.441 249.725 191.076 250.323C190.426 251.386 189.007 252.139 189.298 253.446C190.223 257.604 193.881 258.483 197.778 260.187C209.369 265.257 222.25 266.926 234.797 268.525C250.741 270.555 266.917 269.896 282.988 270.061C328.405 270.529 373.86 270.478 419.237 268.525C437.817 267.725 456.501 267.247 474.874 264.357C480.355 263.407 482.525 261.785 480.218 257.116C480.165 256.908 480.127 256.703 480.087 256.497C480.547 260.899 473.787 261.139 468.864 262.103C437.068 268.328 404.139 265.458 371.746 265.98C331.22 266.634 283.519 272.153 243.614 265.05C226.799 262.058 202.118 255.42 191.646 248.361Z" fill="#525F98"/>
<path d="M366.415 311.721L362.123 314.298L359.466 318.164L362.086 323.524L359.74 335.894L387.323 353.142L417.034 326.502L415.859 314.709L419.044 308.397L416.722 305.347L412.613 304.148L405.562 309.677L389.429 309.677L373.038 315.009L366.415 311.721Z" fill="#525F98"/>
<path d="M380.67 346.203C383.518 344.375 386.851 342.268 387.114 336.85L387.601 326.783L383.631 327.434L383.484 330.478C383.33 333.655 380.795 335.962 378.691 336.308C375.468 336.837 374.379 333.598 374.624 328.548C374.852 323.832 376.36 319.802 380.228 319.167C381.992 318.877 383.79 319.279 384.889 320.227L386.98 317.362C385.884 316.347 383.871 315.516 380.851 316.012C373.998 317.137 370.567 322.644 370.231 329.6C369.904 336.356 372.094 340.476 377.76 339.546C380.373 339.117 382.527 337.735 383.635 335.695L383.612 336.164C383.507 338.338 383.404 341.175 379.237 343.816L380.67 346.203Z" fill="white"/>
<path d="M398.527 318.959C393.336 319.811 390.605 324.074 390.361 329.124C390.105 334.408 392.189 337.251 397.38 336.399C402.571 335.547 405.301 331.284 405.544 326.267C405.801 320.95 403.718 318.107 398.527 318.959ZM398.052 321.824C400.969 321.345 401.517 323.942 401.355 327.287C401.199 330.497 400.467 333.105 397.855 333.534C394.937 334.013 394.39 331.416 394.55 328.105C394.707 324.861 395.439 322.253 398.052 321.824Z" fill="white"/>
</g>
<defs>
<clipPath id="clip0_127_13">
<rect width="532" height="471" fill="white"/>
</clipPath>
</defs>
</svg>
