<?xml version="1.0" encoding="UTF-8"?>
<svg xmlns="http://www.w3.org/2000/svg" xmlns:xlink="http://www.w3.org/1999/xlink" width="54px" height="48px" viewBox="0 0 54 48" version="1.1">
<defs>
<filter id="alpha" filterUnits="objectBoundingBox" x="0%" y="0%" width="100%" height="100%">
  <feColorMatrix type="matrix" in="SourceGraphic" values="0 0 0 0 1 0 0 0 0 1 0 0 0 0 1 0 0 0 1 0"/>
</filter>
<mask id="mask0">
  <g filter="url(#alpha)">
<rect x="0" y="0" width="54" height="48" style="fill:rgb(0%,0%,0%);fill-opacity:0.0588235;stroke:none;"/>
  </g>
</mask>
<clipPath id="clip1">
  <rect x="0" y="0" width="54" height="48"/>
</clipPath>
<g id="surface5" clip-path="url(#clip1)">
<path style=" stroke:none;fill-rule:nonzero;fill:rgb(0%,0%,0%);fill-opacity:1;" d="M 40.714844 22.851562 C 39.523438 22.851562 38.558594 21.960938 38.558594 20.855469 C 38.558594 19.753906 39.523438 18.863281 40.714844 18.863281 C 41.902344 18.863281 42.867188 19.753906 42.867188 20.855469 C 42.867188 21.960938 41.902344 22.851562 40.714844 22.851562 Z M 40.714844 22.851562 "/>
<path style=" stroke:none;fill-rule:nonzero;fill:rgb(0%,0%,0%);fill-opacity:1;" d="M 18.367188 4.195312 C 17.734375 4.191406 17.339844 4.277344 16.871094 4.511719 C 16.386719 4.753906 15.90625 5.277344 15.761719 5.714844 C 15.546875 6.375 15.722656 7.152344 16.246094 7.835938 C 16.550781 8.234375 16.902344 8.46875 17.644531 8.765625 C 17.953125 8.890625 18.382812 9.105469 18.601562 9.242188 C 19.140625 9.582031 19.542969 9.753906 19.898438 9.796875 C 20.132812 9.828125 20.199219 9.859375 20.199219 9.949219 C 20.199219 10.035156 20.132812 10.074219 19.921875 10.105469 C 19.769531 10.128906 19.558594 10.128906 19.457031 10.105469 C 19.269531 10.0625 19.265625 10.066406 19.105469 10.554688 C 18.734375 11.6875 18.546875 13.050781 18.546875 14.625 C 18.550781 16.390625 18.722656 17.410156 19.46875 20.03125 C 20 21.910156 20.152344 22.578125 20.289062 23.625 C 20.488281 25.136719 20.417969 26.191406 19.914062 29.203125 C 19.449219 32.003906 19.421875 32.257812 19.417969 33.691406 C 19.417969 35.070312 19.480469 35.605469 19.757812 36.566406 C 20.28125 38.378906 21.074219 39.859375 22.050781 40.84375 C 22.816406 41.613281 24.222656 42.410156 26.007812 43.089844 C 26.53125 43.289062 26.566406 43.292969 26.625 43.183594 C 26.792969 42.886719 26.933594 42.820312 27.523438 42.816406 C 23.8125 39.5625 24.214844 34.878906 25.074219 32.308594 C 25.777344 30.203125 28.121094 27.171875 28.121094 27.171875 L 25.972656 26.980469 C 25.972656 26.980469 25.273438 22.867188 24.710938 21.203125 C 22.542969 14.820312 21.847656 9.589844 25.128906 5.9375 C 25.6875 5.316406 26.335938 4.855469 27.007812 4.519531 C 26.144531 4.703125 25.253906 4.984375 24.476562 5.324219 C 23.835938 5.601562 22.652344 6.28125 22.652344 6.363281 C 22.652344 6.402344 22.683594 6.554688 22.71875 6.703125 C 22.792969 7.039062 22.710938 7.242188 22.503906 7.210938 C 22.390625 7.195312 22.363281 7.140625 22.332031 6.875 C 22.269531 6.375 22.023438 5.96875 21.460938 5.4375 C 20.574219 4.597656 19.800781 4.257812 18.65625 4.207031 C 18.554688 4.199219 18.460938 4.199219 18.367188 4.195312 Z M 18.5 6.523438 C 18.683594 6.527344 18.882812 6.5625 19.066406 6.621094 C 19.449219 6.75 20.25 7.269531 20.4375 7.507812 C 20.726562 7.878906 20.539062 7.894531 20.113281 7.539062 C 19.945312 7.402344 19.789062 7.289062 19.765625 7.289062 C 19.742188 7.289062 19.5 7.472656 19.222656 7.699219 C 18.945312 7.925781 18.6875 8.109375 18.644531 8.109375 C 18.460938 8.109375 18.589844 7.910156 18.941406 7.636719 C 19.386719 7.289062 19.507812 7.117188 19.335938 7.054688 C 19.273438 7.035156 19.054688 6.945312 18.851562 6.863281 C 18.5625 6.742188 18.417969 6.714844 18.207031 6.75 C 17.914062 6.792969 17.839844 6.710938 18.066406 6.589844 C 18.160156 6.539062 18.320312 6.515625 18.5 6.523438 Z M 28.457031 43.542969 C 28.457031 43.546875 28.457031 43.546875 28.457031 43.546875 L 28.390625 43.769531 L 28.933594 43.867188 C 28.941406 43.867188 28.953125 43.871094 28.960938 43.871094 C 28.785156 43.765625 28.617188 43.65625 28.457031 43.542969 Z M 28.457031 43.542969 "/>
<path style=" stroke:none;fill-rule:evenodd;fill:rgb(0%,0%,0%);fill-opacity:1;" d="M 27.367188 27.183594 L 26.941406 28.621094 C 27.191406 28.625 27.882812 28 28.546875 27.964844 C 35.929688 27.535156 40.542969 27.925781 46.511719 27.441406 C 46.652344 27.429688 46.875 27.429688 47.011719 27.460938 C 47.511719 27.574219 47.789062 28.847656 47.910156 28.773438 C 47.96875 27.410156 47.6875 26.925781 47.351562 26.585938 Z M 27.367188 27.183594 "/>
</g>
</defs>
<g id="surface1">
<path style=" stroke:none;fill-rule:evenodd;fill:rgb(32.156864%,37.254903%,59.607846%);fill-opacity:1;" d="M 20.828125 25.992188 C 18.84375 26.484375 20.449219 29.527344 18.546875 30.382812 C 16.796875 31.171875 15.679688 33.015625 13.921875 34.003906 C 11.589844 35.3125 9.386719 35.734375 7.117188 37.449219 C 6.007812 38.285156 2.507812 37.785156 2.402344 39.183594 C 7.796875 38.34375 10.679688 40.722656 14 41.167969 C 16.929688 41.5625 19.144531 41.398438 21.625 40.445312 C 30.230469 37.128906 26.628906 29.664062 26.59375 27.394531 C 24.898438 27.074219 22.472656 25.582031 20.828125 25.992188 Z M 20.828125 25.992188 "/>
<path style=" stroke:none;fill-rule:nonzero;fill:rgb(88.235295%,83.92157%,72.549021%);fill-opacity:1;" d="M 45.472656 31.941406 C 45.375 32.183594 45.347656 32.386719 45.378906 32.554688 C 45.414062 32.722656 45.5 32.863281 45.617188 32.992188 C 45.734375 33.125 45.878906 33.25 46.03125 33.378906 C 46.1875 33.511719 46.351562 33.640625 46.523438 33.769531 C 46.695312 33.894531 46.867188 33.996094 47.035156 34.074219 C 47.203125 34.148438 47.367188 34.203125 47.511719 34.21875 C 47.660156 34.238281 47.792969 34.226562 47.902344 34.164062 C 48.015625 34.105469 48.101562 34 48.160156 33.832031 C 48.21875 33.667969 48.21875 33.527344 48.171875 33.40625 C 48.125 33.289062 48.03125 33.195312 47.90625 33.113281 C 47.78125 33.03125 47.625 32.960938 47.464844 32.878906 C 47.304688 32.796875 47.140625 32.699219 46.984375 32.558594 C 46.824219 32.421875 46.691406 32.230469 46.566406 32.054688 C 46.4375 31.875 46.308594 31.707031 46.179688 31.605469 C 46.050781 31.503906 45.917969 31.464844 45.796875 31.511719 C 45.675781 31.5625 45.375 32.183594 45.472656 31.941406 Z M 45.472656 31.941406 "/>
<path style=" stroke:none;fill-rule:nonzero;fill:rgb(22.352941%,27.450982%,33.333334%);fill-opacity:1;" d="M 46.1875 31.453125 C 46.320312 31.535156 46.453125 31.667969 46.582031 31.824219 C 46.734375 32 46.882812 32.203125 47.066406 32.363281 C 47.246094 32.523438 47.433594 32.640625 47.613281 32.742188 C 47.796875 32.847656 47.972656 32.9375 48.113281 33.042969 C 48.253906 33.152344 48.359375 33.277344 48.414062 33.421875 C 48.464844 33.570312 48.46875 33.738281 48.40625 33.921875 C 48.347656 34.105469 48.246094 34.234375 48.117188 34.308594 C 47.984375 34.386719 47.824219 34.410156 47.644531 34.398438 C 47.46875 34.390625 47.269531 34.339844 47.070312 34.261719 C 46.871094 34.179688 46.667969 34.070312 46.464844 33.925781 C 46.265625 33.785156 46.082031 33.636719 45.914062 33.496094 C 45.746094 33.351562 45.59375 33.214844 45.476562 33.074219 C 45.429688 33.019531 45.390625 32.960938 45.355469 32.902344 C 45.289062 32.785156 45.414062 32.519531 45.457031 32.652344 C 45.5 32.78125 45.570312 32.886719 45.660156 32.992188 C 45.773438 33.117188 45.910156 33.242188 46.058594 33.367188 C 46.207031 33.492188 46.367188 33.617188 46.53125 33.738281 C 46.695312 33.863281 46.859375 33.960938 47.023438 34.035156 C 47.183594 34.109375 47.335938 34.15625 47.480469 34.175781 C 47.621094 34.195312 47.75 34.183594 47.855469 34.125 C 47.960938 34.066406 48.042969 33.964844 48.097656 33.804688 C 48.152344 33.648438 48.15625 33.511719 48.109375 33.398438 C 48.066406 33.28125 47.972656 33.191406 47.855469 33.113281 C 47.734375 33.03125 47.589844 32.964844 47.4375 32.886719 C 47.28125 32.804688 47.125 32.710938 46.972656 32.578125 C 46.820312 32.445312 46.691406 32.261719 46.570312 32.089844 C 46.445312 31.917969 46.324219 31.757812 46.199219 31.660156 C 46.183594 31.648438 46.171875 31.636719 46.15625 31.625 C 46.113281 31.597656 46.074219 31.578125 46.035156 31.566406 C 45.988281 31.550781 46.019531 31.355469 46.132812 31.421875 C 46.152344 31.429688 46.179688 31.472656 46.1875 31.453125 Z M 46.1875 31.453125 "/>
<path style=" stroke:none;fill-rule:nonzero;fill:rgb(22.352941%,27.450982%,33.333334%);fill-opacity:1;" d="M 38.238281 41.007812 C 38.636719 41.769531 38.488281 42.644531 38.566406 43.296875 C 38.640625 43.945312 38.933594 44.367188 39.167969 44.695312 C 39.398438 45.019531 39.601562 45.234375 39.8125 45.304688 C 40.019531 45.375 40.226562 45.300781 40.457031 45.042969 C 40.6875 44.789062 40.777344 44.496094 40.773438 44.160156 C 40.769531 43.828125 40.667969 43.453125 40.53125 43 C 40.398438 42.550781 40.25 42.019531 39.941406 41.4375 C 39.632812 40.855469 39.210938 40.171875 38.527344 39.5 C 37.84375 38.828125 36.988281 38.296875 36.242188 37.863281 C 35.5 37.429688 34.855469 37.09375 34.355469 36.84375 C 33.851562 36.597656 33.476562 36.4375 33.203125 36.371094 C 32.929688 36.300781 32.761719 36.320312 32.703125 36.425781 C 32.640625 36.53125 32.730469 36.710938 32.976562 36.949219 C 33.222656 37.1875 33.632812 37.488281 34.210938 37.851562 C 34.785156 38.210938 35.542969 38.628906 36.308594 39.136719 C 37.070312 39.648438 37.839844 40.25 38.238281 41.007812 Z M 38.238281 41.007812 "/>
<path style=" stroke:none;fill-rule:nonzero;fill:rgb(88.235295%,83.92157%,72.549021%);fill-opacity:1;" d="M 38.386719 40.796875 C 38.78125 41.425781 38.804688 42.144531 38.8125 42.78125 C 38.820312 43.414062 38.96875 43.890625 39.171875 44.230469 C 39.371094 44.570312 39.570312 44.800781 39.753906 44.90625 C 39.933594 45.007812 40.109375 44.976562 40.300781 44.769531 C 40.488281 44.558594 40.542969 44.304688 40.507812 44 C 40.472656 43.695312 40.351562 43.34375 40.222656 42.910156 C 40.09375 42.476562 39.964844 41.964844 39.691406 41.421875 C 39.414062 40.878906 39.019531 40.277344 38.457031 39.695312 C 37.890625 39.117188 37.195312 38.652344 36.566406 38.273438 C 35.941406 37.894531 35.378906 37.59375 34.933594 37.367188 C 34.488281 37.140625 34.152344 36.988281 33.914062 36.910156 C 33.679688 36.828125 33.539062 36.824219 33.507812 36.894531 C 33.472656 36.96875 33.578125 37.105469 33.824219 37.304688 C 34.070312 37.5 34.457031 37.753906 34.96875 38.066406 C 35.476562 38.375 36.117188 38.742188 36.75 39.1875 C 37.382812 39.636719 37.992188 40.167969 38.386719 40.796875 Z M 38.386719 40.796875 "/>
<path style=" stroke:none;fill-rule:nonzero;fill:rgb(22.352941%,27.450982%,33.333334%);fill-opacity:1;" d="M 22.851562 32.214844 C 22.03125 31.972656 21.480469 31.410156 20.953125 31.082031 C 20.421875 30.75 19.921875 30.648438 19.53125 30.574219 C 19.140625 30.496094 18.847656 30.46875 18.664062 30.527344 C 18.476562 30.585938 18.398438 30.722656 18.441406 30.972656 C 18.480469 31.222656 18.636719 31.429688 18.886719 31.613281 C 19.136719 31.800781 19.480469 31.964844 19.898438 32.15625 C 20.316406 32.347656 20.804688 32.574219 21.4375 32.761719 C 22.066406 32.945312 22.84375 33.136719 23.78125 33.199219 C 24.71875 33.261719 25.660156 33.164062 26.460938 33.0625 C 27.261719 32.960938 27.925781 32.855469 28.433594 32.765625 C 28.941406 32.671875 29.300781 32.585938 29.527344 32.5 C 29.753906 32.414062 29.851562 32.324219 29.808594 32.238281 C 29.769531 32.148438 29.582031 32.089844 29.246094 32.070312 C 28.910156 32.050781 28.421875 32.070312 27.785156 32.132812 C 27.144531 32.195312 26.347656 32.3125 25.480469 32.375 C 24.613281 32.441406 23.671875 32.460938 22.851562 32.214844 Z M 22.851562 32.214844 "/>
<path style=" stroke:none;fill-rule:nonzero;fill:rgb(88.235295%,83.92157%,72.549021%);fill-opacity:1;" d="M 22.914062 32.402344 C 22.191406 32.230469 21.644531 31.839844 21.171875 31.484375 C 20.699219 31.132812 20.253906 30.933594 19.871094 30.835938 C 19.492188 30.738281 19.191406 30.699219 18.996094 30.726562 C 18.800781 30.75 18.710938 30.847656 18.742188 31.054688 C 18.777344 31.257812 18.929688 31.425781 19.175781 31.582031 C 19.425781 31.738281 19.761719 31.878906 20.164062 32.0625 C 20.566406 32.246094 21.03125 32.476562 21.609375 32.652344 C 22.1875 32.832031 22.886719 32.988281 23.679688 33.054688 C 24.472656 33.117188 25.265625 33.058594 25.949219 32.984375 C 26.636719 32.90625 27.21875 32.816406 27.675781 32.738281 C 28.128906 32.660156 28.460938 32.589844 28.671875 32.523438 C 28.882812 32.460938 28.976562 32.398438 28.945312 32.34375 C 28.914062 32.289062 28.742188 32.257812 28.4375 32.261719 C 28.132812 32.261719 27.695312 32.300781 27.136719 32.359375 C 26.578125 32.421875 25.894531 32.511719 25.15625 32.550781 C 24.417969 32.59375 23.632812 32.574219 22.914062 32.402344 Z M 22.914062 32.402344 "/>
<path style=" stroke:none;fill-rule:nonzero;fill:rgb(58.823532%,83.92157%,100%);fill-opacity:1;" d="M 37.132812 5.632812 C 37.269531 5.964844 37.542969 6.234375 37.859375 6.425781 C 38.179688 6.617188 38.539062 6.738281 38.886719 6.792969 C 39.238281 6.847656 39.585938 6.839844 39.925781 6.753906 C 40.269531 6.664062 40.675781 6.523438 40.964844 6.277344 C 41.253906 6.03125 41.355469 5.722656 41.417969 5.4375 C 41.476562 5.15625 41.527344 4.835938 41.714844 4.449219 C 41.902344 4.066406 42.070312 3.675781 42.058594 3.390625 C 42.042969 3.105469 41.976562 2.84375 41.851562 2.621094 C 41.726562 2.394531 41.558594 2.226562 41.355469 2.109375 C 41.152344 1.992188 40.917969 1.925781 40.65625 1.902344 C 40.394531 1.882812 40.109375 1.902344 39.804688 1.96875 C 39.503906 2.035156 39.1875 2.144531 38.863281 2.304688 C 38.542969 2.460938 38.242188 2.65625 37.980469 2.878906 C 37.71875 3.105469 37.496094 3.363281 37.328125 3.640625 C 37.160156 3.921875 37.050781 4.226562 37.023438 4.542969 C 36.996094 4.855469 36.992188 5.296875 37.132812 5.632812 Z M 37.132812 5.632812 "/>
<path style=" stroke:none;fill-rule:nonzero;fill:rgb(22.352941%,27.450982%,33.333334%);fill-opacity:1;" d="M 39.023438 2.019531 C 39.289062 1.914062 39.546875 1.835938 39.796875 1.785156 C 40.125 1.71875 40.441406 1.695312 40.730469 1.71875 C 41.019531 1.742188 41.28125 1.816406 41.503906 1.941406 C 41.730469 2.066406 41.917969 2.25 42.058594 2.492188 C 42.199219 2.734375 42.277344 3.015625 42.300781 3.328125 C 42.324219 3.636719 42.203125 4.03125 41.992188 4.449219 C 41.78125 4.867188 41.722656 5.21875 41.65625 5.527344 C 41.589844 5.832031 41.390625 6.113281 41.019531 6.347656 C 40.976562 6.375 40.882812 6.261719 40.917969 6.230469 C 41.203125 5.972656 41.273438 5.667969 41.371094 5.414062 C 41.429688 5.136719 41.480469 4.824219 41.664062 4.449219 C 41.851562 4.074219 42.015625 3.695312 42.003906 3.417969 C 41.988281 3.140625 41.925781 2.886719 41.804688 2.667969 C 41.6875 2.449219 41.523438 2.285156 41.324219 2.171875 C 41.125 2.058594 40.894531 1.992188 40.640625 1.96875 C 40.382812 1.949219 40.105469 1.96875 39.808594 2.035156 C 39.660156 2.066406 39.507812 2.109375 39.355469 2.164062 C 39.199219 2.21875 39.042969 2.28125 38.886719 2.359375 C 38.570312 2.515625 38.277344 2.703125 38.019531 2.921875 C 37.765625 3.140625 37.542969 3.390625 37.382812 3.664062 C 37.21875 3.9375 37.109375 4.234375 37.085938 4.539062 C 37.058594 4.84375 37.050781 5.273438 37.183594 5.597656 C 37.296875 5.867188 37.488281 6.09375 37.734375 6.261719 C 37.777344 6.292969 37.59375 6.488281 37.457031 6.402344 C 37.199219 6.246094 37.019531 5.988281 36.910156 5.71875 C 36.757812 5.351562 36.738281 4.886719 36.765625 4.546875 C 36.789062 4.203125 36.90625 3.871094 37.085938 3.566406 C 37.265625 3.261719 37.511719 2.988281 37.796875 2.746094 C 38.082031 2.507812 38.40625 2.300781 38.761719 2.132812 C 38.847656 2.09375 38.9375 2.054688 39.023438 2.019531 Z M 39.023438 2.019531 "/>
<path style=" stroke:none;fill-rule:nonzero;fill:rgb(22.352941%,27.450982%,33.333334%);fill-opacity:1;" d="M 41.351562 3.789062 C 41.304688 3.71875 41.1875 3.691406 41.003906 3.742188 C 40.726562 3.820312 40.40625 4.128906 40.230469 4.367188 C 40.136719 4.496094 40.027344 4.621094 39.972656 4.773438 C 39.953125 4.828125 39.9375 4.878906 39.949219 4.953125 C 40.011719 4.9375 40.0625 4.855469 40.09375 4.792969 C 40.222656 4.546875 40.402344 4.328125 40.632812 4.164062 C 40.828125 4.027344 40.851562 3.933594 41.050781 3.847656 C 41.171875 3.796875 41.246094 3.824219 41.351562 3.789062 Z M 41.351562 3.789062 "/>
<path style=" stroke:none;fill-rule:nonzero;fill:rgb(22.352941%,27.450982%,33.333334%);fill-opacity:1;" d="M 40.265625 4.316406 C 40.210938 4.257812 40.3125 4.4375 40.378906 4.460938 C 40.632812 4.546875 40.878906 4.660156 41.128906 4.753906 C 41.207031 4.785156 41.230469 4.699219 41.164062 4.65625 C 41.09375 4.613281 41.019531 4.582031 40.945312 4.554688 C 40.875 4.527344 40.796875 4.519531 40.730469 4.488281 C 40.597656 4.425781 40.523438 4.34375 40.398438 4.277344 C 40.351562 4.253906 40.292969 4.347656 40.265625 4.316406 Z M 40.265625 4.316406 "/>
<path style=" stroke:none;fill-rule:nonzero;fill:rgb(22.352941%,27.450982%,33.333334%);fill-opacity:1;" d="M 48.152344 27.730469 C 47.535156 32.839844 46.445312 37.796875 42.597656 41.183594 C 37.742188 45.453125 28.816406 46.019531 22.503906 41.964844 C 20.679688 40.792969 19.222656 37.539062 18.992188 35.433594 C 18.503906 31.03125 20.304688 28.050781 19.882812 23.988281 C 19.550781 20.757812 17.921875 18.082031 18.074219 14.234375 C 18.179688 11.648438 18.808594 8.644531 20.757812 7.046875 C 23.3125 4.957031 26.292969 3.757812 29.675781 3.839844 C 34.492188 3.957031 39.6875 4.292969 43.726562 7.398438 C 46.613281 9.613281 48.265625 13.277344 48.554688 17.03125 C 48.855469 20.894531 48.546875 24.472656 48.152344 27.730469 Z M 48.152344 27.730469 "/>
<path style=" stroke:none;fill-rule:nonzero;fill:rgb(58.823532%,83.92157%,100%);fill-opacity:1;" d="M 46.945312 32.453125 C 45.914062 37.148438 43.078125 41.523438 38.042969 43.257812 C 33.367188 44.867188 27.21875 44.488281 22.667969 41.4375 C 20.9375 40.273438 19.617188 37.058594 19.425781 35.066406 C 19.027344 30.867188 20.6875 27.789062 20.308594 23.914062 C 19.988281 20.675781 18.453125 18.332031 18.5 14.496094 C 18.53125 11.988281 19.09375 9.015625 21.003906 7.460938 C 23.421875 5.488281 26.191406 4.238281 29.378906 4.253906 C 34.425781 4.28125 40.117188 4.648438 44.136719 8.289062 C 47.808594 11.617188 48.332031 17.480469 48.160156 22.054688 C 48.019531 25.832031 47.652344 29.222656 46.945312 32.453125 Z M 46.945312 32.453125 "/>
<path style=" stroke:none;fill-rule:nonzero;fill:rgb(58.823532%,83.92157%,100%);fill-opacity:1;" d="M 22.1875 6.113281 C 22.421875 6.523438 22.496094 6.976562 22.460938 7.40625 C 22.425781 7.835938 22.289062 8.238281 22.097656 8.582031 C 21.90625 8.925781 21.65625 9.214844 21.328125 9.433594 C 21.003906 9.65625 20.582031 9.886719 20.132812 9.925781 C 19.6875 9.964844 19.308594 9.785156 18.976562 9.578125 C 18.648438 9.367188 18.28125 9.101562 17.753906 8.902344 C 17.230469 8.699219 16.714844 8.488281 16.425781 8.195312 C 16.140625 7.902344 15.910156 7.578125 15.757812 7.234375 C 15.605469 6.890625 15.539062 6.558594 15.550781 6.246094 C 15.558594 5.929688 15.644531 5.628906 15.792969 5.359375 C 15.941406 5.089844 16.160156 4.84375 16.433594 4.640625 C 16.710938 4.441406 17.050781 4.277344 17.449219 4.179688 C 17.847656 4.078125 18.273438 4.046875 18.703125 4.078125 C 19.132812 4.109375 19.574219 4.207031 19.992188 4.363281 C 20.410156 4.523438 20.808594 4.742188 21.152344 5.023438 C 21.496094 5.300781 21.949219 5.703125 22.1875 6.113281 Z M 22.1875 6.113281 "/>
<path style=" stroke:none;fill-rule:nonzero;fill:rgb(22.352941%,27.450982%,33.333334%);fill-opacity:1;" d="M 17.046875 4.054688 C 16.75 4.164062 16.488281 4.308594 16.261719 4.480469 C 15.960938 4.707031 15.726562 4.980469 15.5625 5.28125 C 15.398438 5.582031 15.304688 5.910156 15.289062 6.257812 C 15.273438 6.605469 15.339844 6.96875 15.5 7.34375 C 15.664062 7.71875 15.90625 8.074219 16.210938 8.394531 C 16.515625 8.710938 17 8.972656 17.574219 9.171875 C 18.148438 9.371094 18.550781 9.65625 18.90625 9.875 C 19.257812 10.09375 19.675781 10.15625 20.167969 10.035156 C 20.222656 10.019531 20.175781 9.84375 20.121094 9.84375 C 19.667969 9.871094 19.308594 9.660156 18.980469 9.511719 C 18.660156 9.308594 18.300781 9.046875 17.789062 8.851562 C 17.273438 8.65625 16.769531 8.453125 16.488281 8.164062 C 16.210938 7.878906 15.984375 7.566406 15.835938 7.230469 C 15.683594 6.894531 15.621094 6.570312 15.628906 6.265625 C 15.640625 5.957031 15.722656 5.664062 15.867188 5.398438 C 16.015625 5.136719 16.226562 4.898438 16.496094 4.699219 C 16.632812 4.601562 16.785156 4.511719 16.949219 4.433594 C 17.113281 4.359375 17.292969 4.292969 17.488281 4.242188 C 17.878906 4.144531 18.292969 4.113281 18.714844 4.144531 C 19.136719 4.175781 19.566406 4.269531 19.976562 4.425781 C 20.382812 4.578125 20.773438 4.792969 21.105469 5.066406 C 21.441406 5.335938 21.886719 5.730469 22.117188 6.128906 C 22.304688 6.457031 22.394531 6.8125 22.390625 7.160156 C 22.386719 7.226562 22.710938 7.234375 22.722656 7.046875 C 22.75 6.695312 22.621094 6.335938 22.433594 6.007812 C 22.175781 5.570312 21.722656 5.132812 21.351562 4.832031 C 20.980469 4.53125 20.550781 4.292969 20.097656 4.125 C 19.644531 3.957031 19.171875 3.855469 18.707031 3.828125 C 18.246094 3.796875 17.789062 3.835938 17.355469 3.953125 C 17.25 3.984375 17.144531 4.015625 17.046875 4.054688 Z M 17.046875 4.054688 "/>
<path style=" stroke:none;fill-rule:nonzero;fill:rgb(22.352941%,27.450982%,33.333334%);fill-opacity:1;" d="M 17.945312 6.761719 C 17.980469 6.628906 18.140625 6.535156 18.433594 6.523438 C 18.878906 6.5 19.496094 6.804688 19.867188 7.070312 C 20.070312 7.214844 20.289062 7.347656 20.441406 7.546875 C 20.496094 7.613281 20.542969 7.683594 20.558594 7.796875 C 20.457031 7.808594 20.347656 7.710938 20.269531 7.636719 C 19.964844 7.332031 19.597656 7.09375 19.179688 6.96875 C 18.828125 6.859375 18.746094 6.730469 18.417969 6.699219 C 18.210938 6.679688 18.117188 6.757812 17.945312 6.761719 Z M 17.945312 6.761719 "/>
<path style=" stroke:none;fill-rule:nonzero;fill:rgb(22.352941%,27.450982%,33.333334%);fill-opacity:1;" d="M 19.792969 7.015625 C 19.84375 6.902344 19.78125 7.214844 19.691406 7.28125 C 19.359375 7.527344 19.054688 7.8125 18.730469 8.074219 C 18.625 8.15625 18.550781 8.042969 18.632812 7.945312 C 18.714844 7.847656 18.804688 7.765625 18.902344 7.691406 C 18.996094 7.617188 19.105469 7.566406 19.191406 7.488281 C 19.355469 7.335938 19.425781 7.179688 19.582031 7.019531 C 19.636719 6.964844 19.765625 7.074219 19.792969 7.015625 Z M 19.792969 7.015625 "/>
<path style=" stroke:none;fill-rule:nonzero;fill:rgb(88.235295%,83.92157%,72.549021%);fill-opacity:1;" d="M 27.835938 42.832031 C 27.578125 42.785156 27.378906 42.800781 27.21875 42.867188 C 27.0625 42.933594 26.945312 43.046875 26.847656 43.195312 C 26.746094 43.34375 26.660156 43.523438 26.574219 43.714844 C 26.488281 43.90625 26.40625 44.113281 26.324219 44.320312 C 26.242188 44.527344 26.179688 44.726562 26.136719 44.914062 C 26.097656 45.101562 26.078125 45.273438 26.089844 45.429688 C 26.097656 45.582031 26.136719 45.714844 26.222656 45.816406 C 26.308594 45.921875 26.4375 45.996094 26.621094 46.03125 C 26.804688 46.070312 26.953125 46.050781 27.070312 45.988281 C 27.1875 45.925781 27.273438 45.820312 27.339844 45.683594 C 27.402344 45.546875 27.449219 45.382812 27.496094 45.199219 C 27.542969 45.015625 27.597656 44.816406 27.683594 44.609375 C 27.765625 44.402344 27.898438 44.199219 28.019531 44.011719 C 28.144531 43.820312 28.257812 43.640625 28.320312 43.480469 C 28.382812 43.320312 28.390625 43.179688 28.320312 43.070312 C 28.246094 42.960938 28.09375 42.878906 27.835938 42.832031 Z M 27.835938 42.832031 "/>
<path style=" stroke:none;fill-rule:nonzero;fill:rgb(22.352941%,27.450982%,33.333334%);fill-opacity:1;" d="M 28.46875 43.453125 C 28.421875 43.609375 28.335938 43.78125 28.234375 43.964844 C 28.117188 44.175781 27.980469 44.402344 27.882812 44.644531 C 27.785156 44.882812 27.71875 45.109375 27.652344 45.316406 C 27.589844 45.527344 27.523438 45.710938 27.433594 45.867188 C 27.34375 46.019531 27.230469 46.140625 27.085938 46.210938 C 26.941406 46.285156 26.765625 46.308594 26.5625 46.273438 C 26.359375 46.242188 26.207031 46.15625 26.105469 46.039062 C 26 45.917969 25.941406 45.757812 25.921875 45.578125 C 25.898438 45.394531 25.90625 45.191406 25.945312 44.96875 C 25.980469 44.75 26.046875 44.515625 26.140625 44.277344 C 26.234375 44.039062 26.328125 43.8125 26.425781 43.605469 C 26.523438 43.402344 26.621094 43.214844 26.734375 43.066406 C 26.777344 43.007812 26.824219 42.957031 26.875 42.910156 C 26.976562 42.820312 27.261719 42.894531 27.140625 42.964844 C 27.027344 43.03125 26.988281 43.117188 26.914062 43.234375 C 26.820312 43.378906 26.753906 43.5625 26.675781 43.738281 C 26.601562 43.914062 26.464844 44.082031 26.390625 44.265625 C 26.316406 44.449219 26.257812 44.628906 26.222656 44.800781 C 26.1875 44.96875 26.171875 45.132812 26.179688 45.277344 C 26.191406 45.421875 26.226562 45.546875 26.304688 45.640625 C 26.382812 45.738281 26.5 45.804688 26.664062 45.839844 C 26.828125 45.871094 26.957031 45.851562 27.054688 45.792969 C 27.152344 45.734375 27.160156 45.566406 27.207031 45.441406 C 27.25 45.316406 27.324219 45.164062 27.363281 45 C 27.40625 44.839844 27.472656 44.738281 27.574219 44.558594 C 27.671875 44.378906 27.824219 44.207031 27.964844 44.023438 C 28.105469 43.84375 28.21875 43.667969 28.277344 43.515625 C 28.285156 43.496094 28.292969 43.476562 28.296875 43.457031 C 28.3125 43.410156 28.324219 43.363281 28.324219 43.320312 C 28.324219 43.273438 28.519531 43.257812 28.484375 43.386719 C 28.480469 43.410156 28.472656 43.429688 28.46875 43.453125 Z M 28.46875 43.453125 "/>
<use xlink:href="#surface5" mask="url(#mask0)"/>
<path style=" stroke:none;fill-rule:nonzero;fill:rgb(22.352941%,27.450982%,33.333334%);fill-opacity:1;" d="M 24.308594 14.730469 C 24.335938 15.667969 24.570312 16.570312 24.964844 17.40625 C 25.359375 18.242188 25.914062 19.015625 26.589844 19.683594 C 27.261719 20.351562 28.054688 20.917969 28.925781 21.335938 C 29.792969 21.753906 30.742188 22.019531 31.726562 22.085938 C 32.710938 22.152344 33.640625 22.011719 34.484375 21.695312 C 35.324219 21.378906 36.078125 20.886719 36.707031 20.253906 C 37.332031 19.621094 37.832031 18.847656 38.167969 17.980469 C 38.507812 17.113281 38.679688 16.148438 38.652344 15.132812 C 38.621094 14.117188 38.394531 13.152344 38.011719 12.277344 C 37.628906 11.40625 37.085938 10.628906 36.429688 9.984375 C 35.769531 9.339844 34.992188 8.828125 34.132812 8.484375 C 33.273438 8.140625 32.335938 7.964844 31.347656 7.976562 C 30.363281 7.992188 29.425781 8.195312 28.574219 8.542969 C 27.71875 8.894531 26.953125 9.386719 26.3125 9.996094 C 25.671875 10.601562 25.15625 11.320312 24.808594 12.117188 C 24.460938 12.917969 24.28125 13.796875 24.308594 14.730469 Z M 24.308594 14.730469 "/>
<path style=" stroke:none;fill-rule:nonzero;fill:rgb(100%,100%,100%);fill-opacity:1;" d="M 24.792969 14.519531 C 24.792969 15.398438 24.984375 16.261719 25.332031 17.070312 C 25.675781 17.882812 26.179688 18.640625 26.800781 19.304688 C 27.425781 19.964844 28.167969 20.527344 28.992188 20.941406 C 29.816406 21.355469 30.71875 21.621094 31.660156 21.6875 C 32.601562 21.753906 33.488281 21.617188 34.292969 21.3125 C 35.097656 21.003906 35.816406 20.53125 36.414062 19.929688 C 37.011719 19.328125 37.488281 18.597656 37.8125 17.78125 C 38.136719 16.964844 38.304688 16.0625 38.285156 15.113281 C 38.265625 14.167969 38.058594 13.273438 37.703125 12.464844 C 37.351562 11.660156 36.847656 10.941406 36.230469 10.347656 C 35.617188 9.753906 34.894531 9.28125 34.089844 8.957031 C 33.289062 8.636719 32.414062 8.460938 31.492188 8.453125 C 30.574219 8.449219 29.695312 8.617188 28.894531 8.914062 C 28.097656 9.210938 27.375 9.644531 26.765625 10.183594 C 26.160156 10.71875 25.667969 11.363281 25.324219 12.09375 C 24.984375 12.824219 24.796875 13.636719 24.792969 14.519531 Z M 24.792969 14.519531 "/>
<path style=" stroke:none;fill-rule:nonzero;fill:rgb(22.352941%,26.666668%,33.333334%);fill-opacity:1;" d="M 29.933594 16.554688 C 28.863281 16.554688 27.996094 15.679688 27.996094 14.601562 C 27.996094 13.527344 28.863281 12.652344 29.933594 12.652344 C 31.003906 12.652344 31.875 13.527344 31.875 14.601562 C 31.875 15.679688 31.003906 16.554688 29.933594 16.554688 Z M 29.933594 16.554688 "/>
<path style=" stroke:none;fill-rule:nonzero;fill:rgb(100%,100%,100%);fill-opacity:1;" d="M 30.792969 14.667969 C 30.265625 14.667969 29.839844 14.238281 29.839844 13.707031 C 29.839844 13.175781 30.265625 12.75 30.792969 12.75 C 31.320312 12.75 31.746094 13.175781 31.746094 13.707031 C 31.746094 14.238281 31.320312 14.667969 30.792969 14.667969 Z M 30.792969 14.667969 "/>
<path style=" stroke:none;fill-rule:nonzero;fill:rgb(22.352941%,27.450982%,33.333334%);fill-opacity:1;" d="M 42.578125 11.113281 C 42.558594 11.851562 42.710938 12.652344 42.933594 13.476562 C 43.15625 14.304688 43.449219 15.160156 43.746094 15.976562 C 44.039062 16.792969 44.339844 17.566406 44.664062 18.230469 C 44.988281 18.890625 45.339844 19.441406 45.777344 19.835938 C 46.214844 20.230469 46.699219 20.433594 47.21875 20.480469 C 47.742188 20.523438 48.394531 20.613281 48.953125 20.359375 C 49.511719 20.105469 50.0625 19.707031 50.554688 19.179688 C 51.042969 18.652344 51.472656 17.996094 51.789062 17.222656 C 52.105469 16.453125 52.277344 15.636719 52.296875 14.828125 C 52.320312 14.019531 52.195312 13.21875 51.933594 12.46875 C 51.667969 11.714844 51.070312 10.789062 50.546875 10.179688 C 50.023438 9.570312 49.382812 9.054688 48.652344 8.664062 C 47.917969 8.277344 47.171875 8.054688 46.464844 7.984375 C 45.757812 7.910156 45.089844 7.992188 44.511719 8.210938 C 43.9375 8.429688 43.457031 8.785156 43.121094 9.273438 C 42.785156 9.757812 42.59375 10.371094 42.578125 11.113281 Z M 42.578125 11.113281 "/>
<path style=" stroke:none;fill-rule:nonzero;fill:rgb(100%,100%,100%);fill-opacity:1;" d="M 42.898438 11.199219 C 42.863281 11.886719 42.96875 12.636719 43.152344 13.421875 C 43.339844 14.203125 43.601562 15.015625 43.894531 15.792969 C 44.1875 16.570312 44.507812 17.308594 44.847656 17.933594 C 45.191406 18.5625 45.558594 19.078125 45.984375 19.449219 C 46.410156 19.820312 46.863281 20.011719 47.34375 20.054688 C 47.820312 20.09375 48.425781 20.191406 48.929688 19.953125 C 49.429688 19.710938 49.921875 19.339844 50.359375 18.847656 C 50.792969 18.351562 51.175781 17.738281 51.453125 17.019531 C 51.730469 16.296875 51.875 15.539062 51.886719 14.785156 C 51.898438 14.035156 51.777344 13.285156 51.527344 12.585938 C 51.277344 11.886719 50.703125 11.003906 50.21875 10.433594 C 49.734375 9.867188 49.140625 9.382812 48.464844 9.015625 C 47.792969 8.648438 47.109375 8.4375 46.464844 8.363281 C 45.816406 8.292969 45.210938 8.359375 44.691406 8.550781 C 44.171875 8.746094 43.738281 9.066406 43.429688 9.507812 C 43.117188 9.953125 42.9375 10.511719 42.898438 11.199219 Z M 42.898438 11.199219 "/>
<path style=" stroke:none;fill-rule:nonzero;fill:rgb(22.352941%,26.666668%,33.333334%);fill-opacity:1;" d="M 50.050781 14.476562 C 49.269531 14.222656 48.835938 13.378906 49.085938 12.59375 C 49.335938 11.804688 50.175781 11.371094 50.957031 11.621094 C 51.742188 11.875 52.175781 12.71875 51.925781 13.507812 C 51.671875 14.292969 50.835938 14.726562 50.050781 14.476562 Z M 50.050781 14.476562 "/>
<path style=" stroke:none;fill-rule:nonzero;fill:rgb(100%,100%,100%);fill-opacity:1;" d="M 50.882812 13.1875 C 50.496094 13.0625 50.285156 12.648438 50.40625 12.261719 C 50.53125 11.871094 50.941406 11.660156 51.328125 11.785156 C 51.714844 11.90625 51.925781 12.320312 51.804688 12.710938 C 51.679688 13.097656 51.269531 13.308594 50.882812 13.1875 Z M 50.882812 13.1875 "/>
<path style=" stroke:none;fill-rule:nonzero;fill:rgb(18.039216%,20.392157%,21.176471%);fill-opacity:1;" d="M 41.679688 20.378906 L 41.070312 20.386719 L 40.710938 20.378906 C 40.597656 20.378906 40.5 20.433594 40.425781 20.511719 C 40.351562 20.589844 40.3125 20.703125 40.296875 20.824219 L 40.199219 21.507812 L 40.066406 22.191406 C 40.039062 22.316406 40.074219 22.425781 40.132812 22.503906 C 40.191406 22.582031 40.285156 22.628906 40.390625 22.632812 L 40.75 22.640625 L 41.460938 22.625 C 41.597656 22.621094 41.722656 22.566406 41.816406 22.484375 C 41.910156 22.402344 41.964844 22.292969 41.976562 22.171875 L 42.039062 21.488281 L 42.089844 20.808594 C 42.097656 20.6875 42.042969 20.582031 41.96875 20.503906 C 41.890625 20.425781 41.789062 20.378906 41.679688 20.378906 Z M 41.679688 20.378906 "/>
<path style=" stroke:none;fill-rule:nonzero;fill:rgb(100%,100%,100%);fill-opacity:1;" d="M 41.566406 20.585938 L 41.070312 20.59375 L 40.832031 20.585938 C 40.742188 20.582031 40.660156 20.625 40.597656 20.691406 C 40.535156 20.757812 40.496094 20.847656 40.480469 20.945312 L 40.382812 21.503906 L 40.261719 22.066406 C 40.242188 22.164062 40.261719 22.257812 40.308594 22.320312 C 40.355469 22.386719 40.433594 22.421875 40.519531 22.425781 L 40.765625 22.433594 L 41.328125 22.421875 C 41.4375 22.417969 41.539062 22.375 41.613281 22.308594 C 41.691406 22.242188 41.742188 22.152344 41.753906 22.050781 L 41.824219 21.496094 L 41.882812 20.9375 C 41.894531 20.839844 41.855469 20.75 41.796875 20.6875 C 41.738281 20.625 41.660156 20.585938 41.566406 20.585938 Z M 41.566406 20.585938 "/>
<path style=" stroke:none;fill-rule:nonzero;fill:rgb(22.352941%,27.450982%,33.333334%);fill-opacity:1;" d="M 38.789062 19.800781 C 38.804688 20.019531 38.9375 20.21875 39.128906 20.398438 C 39.320312 20.574219 39.585938 20.734375 39.890625 20.863281 C 40.195312 20.992188 40.539062 21.09375 40.886719 21.144531 C 41.238281 21.199219 41.589844 21.203125 41.9375 21.164062 C 42.285156 21.121094 42.59375 21.035156 42.867188 20.933594 C 43.136719 20.828125 43.363281 20.707031 43.539062 20.570312 C 43.71875 20.433594 43.851562 20.28125 43.933594 20.113281 C 44.019531 19.945312 44.054688 19.757812 44.023438 19.558594 C 43.992188 19.359375 43.898438 19.160156 43.753906 18.980469 C 43.609375 18.800781 43.414062 18.636719 43.1875 18.5 C 42.957031 18.363281 42.695312 18.257812 42.40625 18.183594 C 42.117188 18.113281 41.800781 18.078125 41.453125 18.089844 C 41.105469 18.101562 40.761719 18.15625 40.433594 18.25 C 40.105469 18.339844 39.796875 18.46875 39.539062 18.625 C 39.277344 18.785156 39.066406 18.964844 38.945312 19.167969 C 38.816406 19.378906 38.773438 19.613281 38.789062 19.800781 Z M 38.789062 19.800781 "/>
<path style=" stroke:none;fill-rule:nonzero;fill:rgb(88.235295%,81.568629%,79.607844%);fill-opacity:1;" d="M 39.523438 19.75 C 39.550781 19.925781 39.652344 20.089844 39.808594 20.234375 C 39.964844 20.378906 40.171875 20.507812 40.410156 20.613281 C 40.648438 20.714844 40.914062 20.789062 41.1875 20.832031 C 41.457031 20.871094 41.734375 20.875 42.003906 20.839844 C 42.277344 20.808594 42.519531 20.742188 42.730469 20.65625 C 42.941406 20.574219 43.117188 20.46875 43.257812 20.355469 C 43.394531 20.242188 43.496094 20.113281 43.558594 19.976562 C 43.617188 19.835938 43.636719 19.6875 43.605469 19.527344 C 43.574219 19.371094 43.496094 19.21875 43.378906 19.078125 C 43.265625 18.941406 43.113281 18.8125 42.933594 18.710938 C 42.753906 18.605469 42.546875 18.523438 42.320312 18.472656 C 42.09375 18.417969 41.84375 18.394531 41.574219 18.40625 C 41.304688 18.414062 41.039062 18.460938 40.789062 18.535156 C 40.539062 18.605469 40.300781 18.707031 40.101562 18.828125 C 39.902344 18.953125 39.742188 19.09375 39.640625 19.25 C 39.535156 19.40625 39.492188 19.578125 39.523438 19.75 Z M 39.523438 19.75 "/>
<path style=" stroke:none;fill-rule:nonzero;fill:rgb(22.352941%,27.450982%,33.333334%);fill-opacity:1;" d="M 40.484375 18.6875 C 40.527344 18.8125 40.621094 18.925781 40.753906 19.019531 C 40.882812 19.113281 41.050781 19.1875 41.230469 19.246094 C 41.410156 19.304688 41.605469 19.347656 41.792969 19.367188 C 41.984375 19.390625 42.167969 19.390625 42.34375 19.371094 C 42.515625 19.351562 42.664062 19.3125 42.789062 19.257812 C 42.910156 19.203125 43.011719 19.136719 43.09375 19.050781 C 43.171875 18.96875 43.230469 18.875 43.265625 18.769531 C 43.300781 18.664062 43.308594 18.546875 43.285156 18.425781 C 43.261719 18.304688 43.210938 18.1875 43.128906 18.082031 C 43.046875 17.976562 42.9375 17.878906 42.804688 17.804688 C 42.675781 17.726562 42.519531 17.667969 42.347656 17.632812 C 42.175781 17.597656 41.988281 17.585938 41.789062 17.605469 C 41.589844 17.625 41.402344 17.667969 41.230469 17.734375 C 41.058594 17.800781 40.902344 17.886719 40.777344 17.984375 C 40.65625 18.085938 40.558594 18.199219 40.507812 18.316406 C 40.453125 18.4375 40.441406 18.5625 40.484375 18.6875 Z M 40.484375 18.6875 "/>
<path style=" stroke:none;fill-rule:nonzero;fill:rgb(88.235295%,83.92157%,72.549021%);fill-opacity:1;" d="M 29.066406 31.035156 C 28.886719 31.222656 28.789062 31.398438 28.757812 31.570312 C 28.722656 31.738281 28.757812 31.898438 28.824219 32.066406 C 28.890625 32.230469 28.992188 32.402344 29.105469 32.578125 C 29.21875 32.757812 29.339844 32.941406 29.46875 33.125 C 29.59375 33.308594 29.726562 33.46875 29.859375 33.605469 C 29.992188 33.742188 30.125 33.855469 30.257812 33.933594 C 30.390625 34.007812 30.519531 34.046875 30.652344 34.035156 C 30.785156 34.019531 30.917969 33.953125 31.050781 33.820312 C 31.183594 33.683594 31.25 33.550781 31.261719 33.417969 C 31.273438 33.285156 31.234375 33.152344 31.15625 33.023438 C 31.082031 32.894531 30.96875 32.765625 30.84375 32.625 C 30.71875 32.484375 30.582031 32.328125 30.457031 32.144531 C 30.332031 31.957031 30.234375 31.738281 30.144531 31.527344 C 30.054688 31.320312 29.96875 31.125 29.871094 30.984375 C 29.773438 30.84375 29.664062 30.757812 29.53125 30.757812 C 29.398438 30.757812 29.25 30.84375 29.066406 31.035156 Z M 29.066406 31.035156 "/>
<path style=" stroke:none;fill-rule:nonzero;fill:rgb(22.352941%,27.450982%,33.333334%);fill-opacity:1;" d="M 29.929688 30.847656 C 30.035156 30.96875 30.128906 31.140625 30.226562 31.328125 C 30.335938 31.542969 30.453125 31.78125 30.597656 31.992188 C 30.742188 32.207031 30.890625 32.390625 31.027344 32.558594 C 31.164062 32.726562 31.285156 32.886719 31.363281 33.046875 C 31.441406 33.207031 31.476562 33.367188 31.457031 33.53125 C 31.4375 33.691406 31.359375 33.851562 31.21875 34.003906 C 31.078125 34.15625 30.925781 34.234375 30.769531 34.253906 C 30.613281 34.277344 30.453125 34.238281 30.289062 34.15625 C 30.125 34.074219 29.960938 33.953125 29.796875 33.800781 C 29.636719 33.648438 29.476562 33.464844 29.332031 33.253906 C 29.183594 33.042969 29.050781 32.839844 28.933594 32.644531 C 28.816406 32.449219 28.714844 32.265625 28.65625 32.085938 C 28.632812 32.019531 28.613281 31.949219 28.605469 31.882812 C 28.585938 31.746094 28.800781 31.550781 28.792969 31.691406 C 28.785156 31.820312 28.816406 31.949219 28.867188 32.082031 C 28.933594 32.238281 29.03125 32.402344 29.140625 32.574219 C 29.246094 32.746094 29.367188 32.921875 29.488281 33.097656 C 29.609375 33.273438 29.738281 33.433594 29.863281 33.5625 C 29.992188 33.695312 30.121094 33.804688 30.246094 33.875 C 30.375 33.949219 30.5 33.988281 30.628906 33.976562 C 30.757812 33.960938 30.882812 33.898438 31.011719 33.769531 C 31.136719 33.636719 31.203125 33.507812 31.214844 33.378906 C 31.226562 33.253906 31.1875 33.128906 31.113281 33.003906 C 31.039062 32.878906 30.929688 32.753906 30.8125 32.621094 C 30.691406 32.484375 30.558594 32.335938 30.4375 32.15625 C 30.320312 31.976562 30.226562 31.765625 30.140625 31.566406 C 30.054688 31.363281 29.972656 31.175781 29.878906 31.042969 C 29.867188 31.023438 29.851562 31.007812 29.839844 30.992188 C 29.808594 30.953125 29.777344 30.921875 29.742188 30.894531 C 29.703125 30.867188 29.796875 30.695312 29.886719 30.796875 C 29.898438 30.8125 29.914062 30.828125 29.929688 30.847656 Z M 29.929688 30.847656 "/>
<path style=" stroke:none;fill-rule:evenodd;fill:rgb(34.509805%,41.176471%,71.372551%);fill-opacity:1;" d="M 19.90625 25.609375 C 19.035156 27.667969 18.4375 28.414062 17 29.933594 C 15.898438 31.101562 14.234375 32.292969 12.796875 33.757812 C 11.5 35.082031 10.292969 35.78125 6.636719 36.84375 C 5.488281 37.179688 2.414062 37.476562 1.699219 40.445312 C 6.148438 37.464844 13.433594 38.191406 17.773438 35.660156 C 21.414062 33.539062 26.351562 27.605469 30.007812 27.132812 C 23.15625 27.070312 21.125 26.628906 19.90625 25.609375 Z M 19.90625 25.609375 "/>
<path style=" stroke:none;fill-rule:evenodd;fill:rgb(34.509805%,41.176471%,71.372551%);fill-opacity:1;" d="M 41.265625 26.773438 L 48.34375 26.28125 C 48.34375 26.28125 48.566406 26.382812 48.601562 26.484375 C 49.308594 28.414062 47.382812 32.355469 47.382812 32.355469 C 47.382812 32.070312 48.679688 28.117188 46.816406 27.199219 C 45.238281 26.421875 43.152344 27 41.265625 26.773438 Z M 41.265625 26.773438 "/>
<path style=" stroke:none;fill-rule:evenodd;fill:rgb(32.156864%,37.254903%,59.607846%);fill-opacity:1;" d="M 19.835938 25.769531 C 19 27.707031 18.398438 28.453125 17 29.933594 C 15.898438 31.101562 14.234375 32.292969 12.796875 33.757812 C 11.5 35.082031 10.292969 35.78125 6.636719 36.84375 C 5.617188 37.140625 3.082031 37.410156 2.023438 39.542969 C 2.285156 39.207031 2.714844 39.074219 2.972656 38.703125 C 3.40625 38.082031 8.808594 37.582031 10.230469 36.671875 C 11.167969 36.070312 13.359375 34.964844 14.460938 34.222656 C 15.5625 33.476562 19.273438 30.378906 20.214844 30.207031 C 23.1875 29.65625 25.59375 27.121094 25.59375 27.121094 C 25.59375 27.121094 25.039062 26.992188 24.890625 26.957031 C 22.351562 26.769531 21.09375 26.417969 20.257812 25.871094 C 20.085938 25.828125 19.894531 25.785156 19.835938 25.769531 Z M 19.835938 25.769531 "/>
<path style=" stroke:none;fill-rule:evenodd;fill:rgb(34.509805%,41.176471%,71.372551%);fill-opacity:1;" d="M 19.929688 25.164062 C 20.402344 25.28125 20.65625 25.667969 21.121094 25.824219 C 22.542969 26.296875 23.828125 26.609375 25.324219 26.71875 C 27.164062 26.851562 29.167969 26.863281 31.015625 26.828125 C 34.527344 26.765625 38.066406 26.644531 41.574219 26.472656 C 43.488281 26.378906 45.46875 26.25 47.378906 26.089844 C 47.75 26.058594 48.144531 25.507812 48.492188 25.644531 C 48.71875 25.734375 48.683594 25.960938 48.742188 26.203125 C 48.976562 26.679688 48.757812 26.84375 48.203125 26.941406 C 46.335938 27.234375 44.441406 27.285156 42.554688 27.367188 C 37.949219 27.566406 33.335938 27.570312 28.722656 27.523438 C 27.09375 27.503906 25.449219 27.574219 23.832031 27.367188 C 22.558594 27.203125 21.25 27.03125 20.074219 26.515625 C 19.679688 26.34375 19.308594 26.253906 19.214844 25.828125 C 19.183594 25.695312 19.328125 25.617188 19.394531 25.511719 C 19.449219 25.421875 19.414062 25.292969 19.515625 25.234375 C 19.640625 25.160156 19.785156 25.125 19.929688 25.164062 Z M 19.929688 25.164062 "/>
<path style=" stroke:none;fill-rule:evenodd;fill:rgb(32.156864%,37.254903%,59.607846%);fill-opacity:1;" d="M 19.453125 25.3125 C 19.429688 25.371094 19.433594 25.449219 19.394531 25.511719 C 19.328125 25.617188 19.183594 25.695312 19.214844 25.828125 C 19.308594 26.253906 19.679688 26.34375 20.074219 26.515625 C 21.25 27.03125 22.558594 27.203125 23.832031 27.367188 C 25.449219 27.574219 27.09375 27.503906 28.722656 27.523438 C 33.335938 27.570312 37.949219 27.566406 42.554688 27.367188 C 44.441406 27.285156 46.335938 27.234375 48.203125 26.941406 C 48.757812 26.84375 48.976562 26.679688 48.742188 26.203125 C 48.738281 26.183594 48.734375 26.160156 48.730469 26.140625 C 48.777344 26.589844 48.089844 26.613281 47.589844 26.710938 C 44.363281 27.34375 41.023438 27.054688 37.734375 27.105469 C 33.621094 27.171875 28.777344 27.734375 24.726562 27.011719 C 23.019531 26.707031 20.515625 26.03125 19.453125 25.3125 Z M 19.453125 25.3125 "/>
<path style=" stroke:none;fill-rule:nonzero;fill:rgb(32.156864%,37.254903%,59.607846%);fill-opacity:1;" d="M 37.191406 31.769531 L 36.757812 32.03125 L 36.488281 32.425781 L 36.753906 32.96875 L 36.515625 34.230469 L 39.316406 35.988281 L 42.332031 33.273438 L 42.210938 32.070312 L 42.535156 31.429688 L 42.300781 31.117188 L 41.882812 30.996094 L 41.167969 31.558594 L 39.527344 31.558594 L 37.863281 32.101562 Z M 37.191406 31.769531 "/>
<path style=" stroke:none;fill-rule:nonzero;fill:rgb(100%,100%,100%);fill-opacity:1;" d="M 38.640625 35.28125 C 38.929688 35.09375 39.265625 34.878906 39.292969 34.328125 L 39.34375 33.300781 L 38.941406 33.367188 L 38.925781 33.679688 C 38.910156 34.003906 38.652344 34.238281 38.4375 34.273438 C 38.113281 34.328125 38 33.996094 38.027344 33.484375 C 38.050781 33.003906 38.203125 32.589844 38.59375 32.527344 C 38.773438 32.496094 38.957031 32.539062 39.066406 32.632812 L 39.28125 32.34375 C 39.167969 32.238281 38.964844 32.15625 38.65625 32.203125 C 37.960938 32.320312 37.613281 32.882812 37.578125 33.589844 C 37.546875 34.277344 37.769531 34.699219 38.34375 34.601562 C 38.609375 34.558594 38.828125 34.417969 38.941406 34.210938 L 38.9375 34.257812 C 38.925781 34.480469 38.917969 34.769531 38.492188 35.039062 Z M 38.640625 35.28125 "/>
<path style=" stroke:none;fill-rule:nonzero;fill:rgb(100%,100%,100%);fill-opacity:1;" d="M 40.453125 32.503906 C 39.925781 32.59375 39.648438 33.027344 39.625 33.542969 C 39.597656 34.078125 39.808594 34.371094 40.335938 34.28125 C 40.863281 34.195312 41.140625 33.761719 41.164062 33.25 C 41.191406 32.707031 40.980469 32.417969 40.453125 32.503906 Z M 40.402344 32.796875 C 40.699219 32.75 40.753906 33.011719 40.738281 33.355469 C 40.722656 33.679688 40.648438 33.945312 40.382812 33.992188 C 40.085938 34.039062 40.03125 33.773438 40.046875 33.4375 C 40.0625 33.105469 40.136719 32.839844 40.402344 32.796875 Z M 40.402344 32.796875 "/>
</g>
</svg>
